<svg xmlns="http://www.w3.org/2000/svg" viewBox="0 0 150 150">
<!-- SVG created with Arrow, by QuiverAI (https://quiver.ai) -->
  <style type="text/css">.cls-0 {fill:#010101;}</style>
  <path class="cls-0" d="m140.5 123.7c-1.5-2.1-3.5-3.9-5.2-5.7h-0.1l-0.1-0.1 0.1 0.1-0.1-0.1 0.5-0.7c0.9-2-0.6-3.5-1.7-4.6-5.5-5.5-15.3-11.3-25.4-18.3 3.9-7.6 6.4-15.6 6.7-28.1-0.2-12 3.2-19.6 3-23.5l-0.1-2.6c2.5-1.4 7.4-3.7 7.2-6.3-0.1-1.8-2.4-1.8-3.7-1.9 2.8-2.4 6.8-6.2 6.3-10.4-0.4-3.6-3.6-7.6-7.7-8.9-3.1-1.2-7.4-1.7-12-0.6 1.6-4.2-0.1-8.3-4.8-9-6-0.9-16 1.6-28.8 5.7-8.5-0.2-14.3 0-19.2 3.4-5.3 3.5-9.7 9.7-10.1 18.8-3.8 1.7-7.9 6-8.4 16.5 0 10.1 5.6 22.4 14.7 32l4.2 4 0.1 0.1c0.4 0.4 0 0 0.2 0.3l-0.3-0.3 0.1 0.1-0.1-0.1 0.1 0.1c0.1 0.1-0.1-0.1 0 0.1 0.1 0.3 0.2 0.2 0 2.7-3.1 0.7-7 1.4-10.8 3.1-4.2 1.8-8.2 3.9-12.1 6.3-1.9 1.3-4 2.6-5.7 3.9-2.8 2.2-9.3 6.9-8.8 10.5l0.1 1.7c-1.1 0.9-2.2 1.8-3.2 2.9-4.3 4-8.7 10.3-10.5 17.5-1.3 4.8-2.6 10.6-3 16.9h2.9c1.5-11.8 3.6-19.2 6.9-25.3 2.2-3.9 5.3-8.4 8.3-10.8 2.6 3.4 10.3 5.5 15.2 8-2.3 2.8-6 6.8-5.9 10.7 0.2 4.2 5 11.4 8.5 17.4h1.8c-3.1-5.3-9.1-14.7-9.1-17 0.1-4.2 3.6-7.3 7-9.7 5.8 1.9 10 5 16 10.9l0.1 0.1v0.1c0.4 0.5 1.3 9.9 1.4 15.6h58.8c-0.3-4.4-1.6-12.4-2.3-14.4 1.5-4.6 5.5-8.6 10.2-10.3 2.7 1.3 7.3 4.6 8 7.9-0.1 2.7-4.2 11.9-6.4 16.8h1.5c1.8-4.3 5.9-15 6-16.6 0.1-2.7-4.1-6.8-6.8-9.6 3-1.4 8.2-3 10.5-4.6 6.2 5.6 9.9 15.3 11.9 30.8h2.1c-1.2-7.3-3.5-17.1-6.4-22.6l-1.6-2.9zm-86.1-25.2c-4.1 1.3-5.5 4.6-4.8 13 0.5 5.3 2.1 10.4 3.4 17.6-8-6.1-13.9-8-22.1-11.3-4.1-1.6-10.5-3.7-11.2-6.4-0.5-4.5 14.9-13 21.4-16.7 4.1-1.9 9.8-4.2 14.7-5.6-0.2 3.5-0.9 9-1.4 9.4zm38.9 26c-3.1 2.9-8.7 2.7-14 2-11.4-2.1-19.2-9.6-24.8-20.9-0.5-0.1-0.9-1-1.3-1.9 3.9-4.8 4.9-12.1 4.4-24.2 1 0.3 1.3 0 0.9-0.6-5-1.9-9.6-5.3-11-10.4-1.4-5.4 0.3-11 4.6-11.4 2.5-0.3 5.8 0.8 7.7 3.5l1.8 3.3c1.2 1 0.1-2.8-0.8-4.8-0.4-8.2 0.8-22 12.7-25.3 2.6-0.7 6.1-1.2 10.1-0.8 7.9 0.8 16.2 4.6 23.6 5 2.7 0.4 5.7-0.1 7.5-1.1 2.2 5.5 0.9 7.5 0.7 11-1.3-2.8-6.9-6.3-9.6-3.3-0.4 0.6-0.7 2.3 0.8 2.8 2.8 0.6 5.3 1.5 8.4 2.7-1.1 6.3-0.8 13-1 17.1-0.4 9.2-2.3 16.2-5.6 22.7-3.3 6.7-7.8 12.6-14.9 15-9.5 2.3-16.1-0.8-23.1-5.3l-4.9-4.6c-0.4-0.5-0.9 0-0.4 0.5 2.5 2.6 5.1 4.7 8.3 7.1 4.2 4.8 10.6 9 19.5 10.3 0.7 0.9 1.5 2.5 2.2 2.3 0.7 3.4 0.7 7.3-1.8 9.3zm7.8-20c2.9-2 4.8-4.3 6.5-7.6v-1 1c5.8 2.7 15.9 8.6 20.2 11.7 6.8 5.5 8.3 7.3 5.3 9.3-6 3-16.9 5-22.6 12.5-1.1-4.6-3-11.6-4.6-15.5-1.3-3-3.7-7.5-5.5-10.4h0.7z"/>
  <path class="cls-0" d="m86.1 40.7c-3.2 0.3-7.2 2.2-8.9 3.8-0.8 1.3 1.2 1 2.9 0.9 3.1-0.3 5.7-0.9 9.5-0.5 0.9 0.1 2.3 0.3 2.6-0.9 0.5-1.5-1-4.1-6.1-3.3z"/>
  <path class="cls-0" d="m83.6 53c-2.4 0.4-4.8 3-5 6.4 0.3 0.8 0.8 0.7 0.9 0.1 1.6-4.1 6.3-7 8.3 0.4 0.3 0.7 0.8 0.6 0.8 0 0.3-4.3-2-7-5-6.9z"/>
  <path class="cls-0" d="m103.4 57.4c-0.2 6.6 3.1 11.6 3.1 13.5 0.1 2-1.9 4.7-5.1 5.9-0.9 0.3-0.9 0.8 0 0.7 3.8 0.1 7.5-3 7-7.1-0.3-2.2-3.3-5.4-4.8-12.9 0-0.4-0.2-0.4-0.2-0.1z"/>
  <path class="cls-0" d="m106.9 62.6c2.7 1.5 4-2.7 2.6-6.2-2.6-3-5.5 2.2-4.1 5l1.5 1.2z"/>
  <path class="cls-0" d="m57.5 67.4c0.9-3.9-1-6.8-4.1-6-1.5 0.3-3 1.8-2.8 4.2 0.3 0.9 0.6 0.6 0.8 0 0.5-2.5 2.4-3 3.5-1.7 1.2 2-0.7 5.6 2.7 7.7 0.9 0.6 0.9-0.5 0.4-1-0.5-1-0.8-1.9-0.5-3.2z"/>
  <path class="cls-0" d="m98.6 81.9c-3.7 0.5-11-2-15-6.1l1.4-0.3c0.6-0.1 0.2-0.9-1.4-0.9-2.2 0-3.6 2.8-2.8 3.5 0.4 0.4 1.1-1.7 1.8-1.7 3.6 5 10.5 7.5 15.9 7.3 2-0.1 1.4-1.9 0.1-1.8z"/>
</svg>