<svg xmlns="http://www.w3.org/2000/svg" viewBox="0 0 200 190">
<!-- SVG created with Arrow, by QuiverAI (https://quiver.ai) -->
  <style type="text/css">.cls-0 {fill:none;stroke:#060707;stroke-width:0.68;stroke-linecap:round;stroke-linejoin:round;stroke-miterlimit:10;}
.cls-1 {fill:#3B78F2;}
.cls-2 {fill:none;stroke:#060707;stroke-width:0.68;stroke-linecap:round;stroke-miterlimit:10;}
.cls-3 {fill:#FFFFFF;stroke:#060707;stroke-width:0.68;stroke-linecap:round;stroke-linejoin:round;stroke-miterlimit:10;}
.cls-4 {fill:none;stroke:#060707;stroke-width:0.68;stroke-linecap:round;stroke-miterlimit:10;}
.cls-5 {fill:#FFFFFF;stroke:#060707;stroke-width:0.68;stroke-linecap:round;stroke-miterlimit:10;}
.cls-6 {fill:#060707;}
.cls-7 {fill:#EA525B;}
.cls-8 {fill:#FFFFFF;}
.cls-9 {fill:#3BCD6B;}
.cls-10 {fill:none;stroke:#FFFFFF;stroke-width:1.13;stroke-miterlimit:10;}
.cls-11 {fill:#B9C0DA;}
.cls-12 {fill:#4DC0EA;}</style>
  <path class="cls-0" d="m42.2 25c1.7 11.9 9.6 17.1 11.8 21.2 1.2 2.5 2.6 7.5 9.8 7.7h8.7c1.9 0 3.4 1.7 3.2 4-0.4 4-4.7 6.5-7.8 6-1.1-0.2-2-1.1-2.6-2.1-1.4-2.3-4.1-5.2-8.7-5.2h-36.6c-5 0-9.6 3.9-9.6 10.2 0.1 5.1 4 11.1 10.7 11.1h14.3c1.7 0 3.2 1.5 3.2 3.2v0.9c0 1.6-1.3 2.9-3 2.9h-13.6c-5.1 0-9.6 4-9.6 10.3 0.1 4.8 3.9 10.1 9.8 10.1h31.3c1.9 0 4.8 4.4 11.4 7.3 5 2.3 14.4 4.6 25-0.1l1-0.5"/>
  <path class="cls-0" d="m48.1 39c1.7 1.2 4.7 2.2 6.9-0.3 1.2-1.8 3.6-5.1 8.6-5.1h32c2.5 0 7.1 1.5 8.8 6.6l0.3 1"/>
  <path class="cls-0" d="m60.5 98.8c2.1-4.2-0.1-13.7-9.1-13.9h-5.1c-1.7 0-3.4-1.3-3.4-3.3s1.5-3.5 3.4-3.5h10.2c3.9 0 7.4-2.2 9.1-5.9 1-2.3 3.8-3 7.8-6.6 4.7-4.2 6.7-11.7 10.5-11.7h11.7c3 0 6-1.4 7.8-4.3 0.7-1.2 1.7-2.5 4.1-2.5 2.1 0 4.4 1.6 5.4 4.3"/>
  <path class="cls-0" d="m13.2 0.6h51.2c6.2 0 11.7 4.8 11.7 11.6 0 2.3-0.4 3.9 0.5 7.4 0.9 3.4 3.2 7.8 3.2 7.8s-8.2-2.8-12.3-2.7c-1.4 0.3-2.6 0.3-6.9 0.3l-47.4 0.1c-5.7 0-10.4-5-10.6-11.1-0.5-6.9 4.9-13.4 10.6-13.4z"/>
  <path class="cls-1" d="m14.5 5.6c-3.9 0.3-6.6 3.4-6.5 7.3 0.1 3.8 2.9 7 6.9 7.1 3.6 0.1 7-2.6 6.9-7.3-0.2-3.7-3.2-7.2-7.3-7.1z"/>
  <path class="cls-8" d="m14.5 8.6c-2.9 0.4-4.5 3.1-3.8 5.3 0.3 1 0.9 1.6 0.9 1.6l-0.6 2 2.6-1c3.8 0.4 5.9-2.1 5.5-4.8-0.4-2-2.5-3.2-4.6-3.1z"/>
  <path d="m25.5 13.6v-1.5c0-1.4 1-2.3 2.5-2.3 1.4 0 2.5 0.8 2.5 2.1h-1.1c0-0.7-0.5-1.2-1.3-1.2-0.9 0-1.4 0.5-1.4 1.4v1.5c0 0.8 0.4 1.3 1.3 1.3s1.4-0.4 1.4-1.3h1.1c0 1.4-1 2.1-2.4 2.1-1.6 0-2.6-0.7-2.6-2.1z"/>
  <path d="m31.3 13.6v-0.2c0-1.3 0.8-2 2.1-2 1.2 0 2.1 0.7 2.1 2v0.2c0 1.4-0.8 2-2 2-1.4 0-2.2-0.6-2.2-2zm3.1 0v-0.2c0-0.8-0.3-1.3-0.9-1.3s-1.1 0.5-1.1 1.3v0.2c0 0.8 0.2 1.3 1 1.3 0.7 0 1-0.5 1-1.3z"/>
  <path d="m36.5 11.4h1v0.6c0.2-0.4 0.6-0.6 1.2-0.6 0.5 0 1 0.2 1.3 0.7 0.4-0.6 0.9-0.7 1.4-0.7 0.8 0 1.7 0.3 1.7 1.7v2.6h-1v-2.3c0-0.8-0.2-1.2-0.7-1.2s-0.9 0.4-0.9 1.2v2.4h-1v-2.4c0-0.8-0.3-1.2-0.8-1.2s-1 0.4-1 1.2v2.4h-1.1v-4.4h-0.1z"/>
  <path d="m44.4 11.4h1v0.6c0.2-0.4 0.6-0.6 1.2-0.6 0.5 0 1 0.2 1.3 0.7 0.3-0.6 0.8-0.7 1.3-0.7 0.8 0 1.9 0.2 1.9 1.7v2.6h-1v-2.2c0-0.8-0.2-1.1-0.7-1.1s-1 0.3-1 1.1v2.2h-0.9v-2.2c0-0.8-0.3-1.3-0.9-1.3s-1.1 0.4-1.1 1.2v2.3h-1v-4.3h-0.1z"/>
  <path d="m52 13.6v-0.2c0-1.2 0.7-2 2-2 1.4 0 2.1 1 2.1 2.2v0.3h-3.1c0 0.7 0.4 1.1 1 1.1 0.4 0 0.7-0.3 0.9-0.5l1.2 0.1c-0.2 0.6-0.9 1-2 1-1.2 0-2.1-0.6-2.1-2zm3.1-0.5c0-0.5-0.4-1-1-1s-1 0.5-1 1h2z"/>
  <path d="m57.1 11.4h1v0.6c0.3-0.4 0.8-0.6 1.4-0.6 1 0 1.9 0.5 1.9 1.7v2.6h-1.2v-2.2c0-0.8-0.2-1.1-0.8-1.1-0.7 0-1.2 0.5-1.2 1.2v2.1h-1.1v-4.3z"/>
  <path d="m62.9 14.4v-2.2h-0.9v-0.8h0.9v-1.7h1.2v1.7h1.3v0.8h-1.3v1.9c0 0.5 0.3 0.6 0.6 0.6h0.7v0.9h-0.9c-1.1 0-1.6-0.4-1.6-1.2z"/>
  <path d="m66.2 14.6h1.2v1h-1v-1h-0.2zm0.2-4.9h1.1v4.3h-1l-0.1-4.3z"/>
  <path class="cls-7" d="m64.5 37.9c-2.9 0.2-6 2.6-5.8 6.1 0 3.6 3 5.2 5.4 5.2 3.1 0 7-1.6 6.6-6.3-0.3-2.9-2.7-5-6.2-5z"/>
  <path class="cls-8" d="m65 42.1c-0.5-1-2.1-1.6-3.4-0.7-1 1.2-0.9 2.2 0.6 3.6l2.5 2 2.7-2.4c1.1-1.1 1.7-2 0.5-3.4-1.2-1-2.5-0.2-2.9 0.9z"/>
  <path d="m74.1 40.9h1.3v4.6h2.8v1h-4.1v-5.6z"/>
  <path d="m78.9 40.6h1.2v0.9h-1.2v-0.9zm0.1 1.9h1.1v4h-1.1v-4z"/>
  <path d="m81.1 40.7h1.1v3.3l1.4-1.5h1.4l-1.8 1.9 1.9 2.1h-1.2l-1.7-1.8v1.9h-1.1v-5.9z"/>
  <path d="m85.2 44.6v-0.2c0-1.2 0.7-2 2-2 1.4 0 2 1 2.2 2.2v0.3h-3c0 0.7 0.3 1.1 1 1.1 0.3 0 0.6-0.3 0.8-0.5l1.2 0.1c-0.2 0.6-0.9 1-1.9 1-1.4 0-2.3-0.6-2.3-2zm3-0.5c0-0.5-0.2-1-0.8-1s-1 0.5-1 1h1.8z"/>
  <path d="m89.9 44.6v-0.1c0-1.3 0.7-2.1 1.7-2.1 0.5 0 1 0.2 1.3 0.6v-2.3h1.1v5.8h-1v-0.5c-0.3 0.4-0.8 0.6-1.3 0.6-1.1 0-1.8-0.7-1.8-2zm3.1 0v-0.1c0-0.9-0.5-1.3-1-1.3s-1 0.4-1 1.3v0.1c0 0.9 0.5 1.3 1 1.3s1-0.4 1-1.3z"/>
  <path d="m95.2 45.5h1.2v1h-1.2v-1zm0-4.6h1v4.2h-0.8l-0.2-4.2z"/>
  <path class="cls-1" d="m20.5 61.1c-2.9 0.1-5.5 2.4-5.4 6.3 0.3 2.8 2.6 5.7 6.8 5.7 2.7-0.2 4.6-2.5 4.3-6.5-0.2-2.5-2.6-5.6-5.7-5.5z"/>
  <path class="cls-8" d="m17.5 66.2-0.1 4.3h1.5l0.1-4.3h-1.5z"/>
  <path class="cls-8" d="m19.4 66.4 0.1 3.5 0.6 0.3h2.5c0.6 0 1-0.3 1-0.7 0-0.3 0.3-0.4 0.3-0.6s-0.3-0.4-0.3-0.4 0.5-0.4 0.3-0.6l-0.3-0.3s0.5-1 0.1-1.5h-2.1l0.3-1.2c0-0.8-1-2.3-1.3-1.5v1.7s-1.1 0.4-1.2 1.3z"/>
  <path d="m29.8 64.6h3.3v0.9h-2.4v1.5h2.3v0.7h-2.3v2h-0.9v-5.1z"/>
  <path d="m33.6 68.1v-0.2c0-1 0.6-1.8 1.8-1.8 1.1 0 1.7 0.8 1.6 2 0 1.3-0.6 1.8-1.8 1.8-1 0-1.6-0.7-1.6-1.8zm2.5 0v-0.2c0-0.7-0.2-1.2-0.7-1.2-0.7 0-0.9 0.5-0.9 1.2v0.1c0 0.7 0.2 1.2 0.9 1.2 0.5 0 0.7-0.5 0.7-1.1z"/>
  <path d="m37.7 64.6h0.9v5.1h-0.9v-5.1z"/>
  <path d="m39.5 64.6h0.9v5.1h-0.9v-5.1z"/>
  <path d="m41.1 68.1v-0.2c0-1 0.6-1.8 1.8-1.7 1.2-0.1 1.8 0.8 1.7 1.9 0 1.3-0.6 1.8-1.7 1.8-1 0-1.8-0.7-1.8-1.8zm2.6 0v-0.2c0-0.7-0.2-1.2-0.7-1.2-0.6 0-0.9 0.5-0.9 1.2v0.1c0 0.7 0.3 1.2 0.9 1.2 0.5 0 0.7-0.5 0.7-1.1z"/>
  <path d="m45 66.2h0.9l0.7 2.4 0.9-2.4h0.7l0.9 2.4 0.6-2.2h0.8l-1.1 3.3h-0.7l-0.8-2.3-0.9 2.3h-0.8l-1.2-3.5z"/>
  <path d="m50.6 68.1v-0.2c0-1 0.8-1.8 1.6-1.7 1.2 0 1.8 0.8 1.8 1.9v0.3h-2.5c0 0.6 0.4 1 0.9 1 0.3 0 0.6-0.3 0.7-0.5l0.9 0.1c-0.1 0.5-0.6 0.7-1.6 0.9-0.9 0-1.8-0.7-1.8-1.8zm2.6-0.5c0-0.4-0.2-0.9-0.8-0.9s-0.8 0.5-0.8 0.9h1.6z"/>
  <path d="m54.5 68.1v-0.2c0-1 0.6-1.8 1.5-1.8 0.4 0 0.7 0.3 1 0.5v-1.9h1v4.9h-0.8v-0.4c-0.2 0.4-0.6 0.7-1.1 0.7-0.7 0-1.6-0.7-1.6-1.8zm2.7 0v-0.2c0-0.8-0.5-1.2-0.8-1.2-0.5 0-1 0.4-1 1.2v0.1c0 0.7 0.5 1.1 1 1.1 0.5 0.1 0.8-0.4 0.8-1z"/>
  <path d="m58.9 68.9h1v0.8h-1v-0.8zm0-4h1v3.5h-0.9l-0.1-3.5z"/>
  <path class="cls-9" d="m22.5 89.4c-2.6 0.1-5.9 2.1-5.4 6.6 0.4 2.6 2.5 4.5 5.6 4.5 2.8-0.1 5.7-2.4 5.2-6.3-0.4-2.2-2.4-4.7-5.4-4.8z"/>
  <path class="cls-10" d="m19.4 95 2.1 2.1 4.1-4.1"/>
  <path d="m30.7 96.1h0.9c0.1 0.5 0.5 0.6 1 0.6 0.6 0 1-0.2 1-0.6 0-0.5-0.4-0.5-0.9-0.6l-0.6-0.1c-0.6-0.2-1.2-0.5-1.2-1.3s0.7-1.4 1.8-1.4c1 0 1.7 0.5 1.8 1.4h-0.8c-0.1-0.4-0.3-0.6-1-0.6-0.5 0-0.8 0.2-0.8 0.6 0 0.5 0.3 0.5 0.8 0.6l0.7 0.2c0.7 0.1 1.2 0.5 1.2 1.2s-0.6 1.4-1.9 1.4c-1.2 0-2-0.5-2-1.4z"/>
  <path d="m35.2 92.6h1v1.8c0.3-0.4 0.7-0.7 1.2-0.5 0.7 0 1.3 0.5 1.3 1.3v2.2h-1v-1.9c0-0.6-0.2-1-0.7-1s-0.8 0.4-0.8 1v1.9h-0.8l-0.2-4.8z"/>
  <path d="m39.2 96.5c0-0.8 0.9-1.1 2.3-1.3v-0.2c0-0.4-0.1-0.6-0.6-0.6-0.4 0-0.5 0.2-0.7 0.5h-0.8c0.1-0.7 0.7-1 1.5-1 1 0 1.6 0.5 1.6 1.2v2.4h-0.8l-0.1-0.4c-0.2 0.4-0.6 0.5-1.1 0.5-0.6-0.1-1.3-0.4-1.3-1.1zm2.3-0.4v-0.2c-0.9 0.1-1.4 0.2-1.4 0.6 0 0.2 0.3 0.5 0.5 0.5 0.5 0 0.9-0.4 0.9-0.9z"/>
  <path d="m43.4 94h0.8v0.4c0.2-0.4 0.5-0.4 1-0.4h0.5v0.7h-0.5c-0.5 0-0.8 0.3-0.8 0.9v1.8h-1v-3.4z"/>
  <path d="m46.1 95.9v-0.3c0-1 0.6-1.7 1.6-1.7 1.2 0 1.8 0.7 1.8 1.8v0.2h-2.5v0.1c0 0.6 0.4 0.9 0.9 0.9 0.3 0 0.6-0.3 0.8-0.4l0.8 0.1c-0.1 0.4-0.8 0.8-1.5 0.9-1.3 0-1.9-0.6-1.9-1.6zm2.6-0.5c0-0.4-0.2-0.9-0.8-0.9s-0.8 0.5-0.8 0.9h1.6z"/>
  <path d="m49.9 95.9v-0.3c0-1 0.7-1.9 1.6-1.7 0.5 0 0.7 0.1 1 0.5v-1.8h1v4.8h-0.9v-0.4c-0.2 0.4-0.6 0.5-1.1 0.5-0.9 0-1.6-0.5-1.6-1.6zm2.6 0v-0.3c0-0.6-0.4-1-0.9-1-0.4 0-0.9 0.4-0.9 1.1v0.2c0 0.7 0.4 1 0.9 1 0.6 0 0.9-0.4 0.9-1z"/>
  <path d="m54.2 96.5h1v0.9h-1v-0.9zm0.2-3.8h0.8v3.4h-0.8v-3.4z"/>
  <path class="cls-0" d="m49.6 142.6c-1-0.5-2.9-1.7-1.7-3.7l13.3-19.4c0.4-0.5 0.9-0.9 2.9 1.6 1 1.1 4.4 4.3 5.5 4.6l5.5 2.9"/>
  <path class="cls-0" d="m49.6 142.6c2 0.8 5 1.5 8.1-1.1l5-6.1 6.9 3.5"/>
  <path class="cls-0" d="m64.1 121.4-14.5 21"/>
  <path class="cls-0" d="m66.1 136.9 4.9-10"/>
  <path class="cls-0" d="m92.9 137.7 6.6-14.3"/>
  <path class="cls-0" d="m67 147.6c17.6 7.1 29.1 12.4 35.6 10.5 4-0.9 6.1-3 8.4-5.5 2.5-2.9 7.5-8.9 7.6-9"/>
  <path class="cls-0" d="m75.2 128.6c-2.2 3.3-7.8 12.4-8.2 19"/>
  <path class="cls-0" d="m94.4 133.4-16.5-7.9s-1.4 1.4-2.7 3.4"/>
  <path class="cls-0" d="m141.7 174.1 1.8 0.5c1.9 3.1 2.4 4.4 2.4 4.4 1.5 3 1 5.5 1.7 7.1 0.8 2.9 0 3.6 1.9 2.8l19.9-8.4c0.7-0.5 1.1-0.5 0.5-2.8-0.8-2.2-3.4-4.3-6.5-4.2-2.4 0.1-8.3 2.5-8.4 2.5l-2.9-6"/>
  <path class="cls-0" d="m144.1 178.1 9-5.4"/>
  <path class="cls-0" d="m146.5 185.9 22.9-9.2"/>
  <path class="cls-0" d="m135.7 115.6c-0.6 2.1-2.6 6.1-2.6 6.1"/>
  <path class="cls-1" d="m180.5 80.9c-0.5-1.9-0.6-3-1.1-2.7-0.7 0-6.8 0.8-12.3 2.2-4.7 1-6 0.1-8.1-1.2-6.5-4.2-11.4-10.2-16.5-12.3l-4.6-1.8c-1.8 2.6-7.8 1.3-10.4-2.7-6.5-1.4-12.9-1.8-23 1-10.9 3.1-14.4 4.2-20.4 9.6-4.2 3.6-12.5 12.1-12.2 13.4l10.6 11.5c0.5 0.5 11.2-10.4 15.1-12.4 1.9-1.4 6-1.9 6-1.9-2 6.4-5.5 16.8-7 22.4-0.4 1.9 0.9 3.5 2.4 4.2 9.7 4.4 24.4 6.5 36.9 5.3 1.8-0.1 1.8-0.9 2.2-1.6 1-2 6.3-20.4 6.3-22.5 4.3 2.6 9.3 6.1 15.6 6.5 5.6 0.5 22.5-4.3 22.5-4.3 0.4 0 0.1-1.9 0.4-3.6l-2.4-9.1z"/>
  <path class="cls-0" d="m111.4 81.7c-5.4 0.9-10.7 1.8-12.8 2.7-4.1 1.7-15.5 13.5-16.2 13.5-0.9 0-10.5-11-10.5-11.5s12.7-13.5 18.5-16.7c3.7-2.3 8.3-3.7 14.2-5.7 8.1-2.1 14.8-3.3 22.1-1.5"/>
  <path class="cls-0" d="m138.1 64.7c5 1.7 6.4 1.8 10.5 4.8 2.5 1.9 9.8 8.4 12.5 9.9 3.5 2.2 6.4 1.1 13-0.2l6-0.8c0.6 0 1.3 6.1 2.6 15 0 0.2-14.7 4.3-21.5 4.5-6 0.2-11.1-2.5-16.7-6.4"/>
  <path class="cls-0" d="m98.6 110c-3 14.9 8.3 22 18.8 31.1 6.3 5.5 7.2 6.3 9.2 10.9l10.3 24.1 7.1-3c2.6-1.1 12.9-4.7 12.9-4.7l-0.3-1.3c-1.4-4.1-8.2-22.7-11-28.1-3-6.1-9.5-12.9-16.4-21.1"/>
  <path class="cls-0" d="m125.6 62.6c-5.5 2-0.2 11.8 0 19 0.1 3.5-0.2 7.1-0.2 7.1"/>
  <path class="cls-4" d="m139.6 65.9c1.1-0.2 0.9 5.7-1 10.6-2.2 6.1-7.7 10.2-13.1 12.1"/>
  <path class="cls-3" d="m121.6 88.5-4.4 9c-0.2 0.4 0 0.6 0.4 0.9l5.9 2.7c0.4 0.1 0.6-0.1 0.9-0.5l4.1-8.6c0.1-0.4-0.1-0.6-0.5-0.8l-5.6-2.8c-0.3-0.2-0.7-0.2-0.8 0.1z"/>
  <path class="cls-6" d="m123.4 87.9 3.7 1.6-0.1 1.1-3.9-1.5v-1.2h0.3z"/>
  <path class="cls-0" d="m180.7 90c1.2-0.5 3.9-0.8 4.9-1.1 5.8-1.5 10.5-3.2 9.6-4.8"/>
  <path class="cls-0" d="m190.5 85.4 5.1-1.8c1-0.6 2.5-2.1 1-2.5 1.1-0.6 1.4-2-0.2-2.1-0.5 0-1.5 0.2-2.2 0.4 2.7-1.3 1.7-2.3 0-1.9-1.8 0-6.6 1.6-7.1 1.9"/>
  <path class="cls-0" d="m185.6 84.1"/>
  <path class="cls-0" d="m185.6 84.5"/>
  <path class="cls-0" d="m190.6 82.9 6-1.7"/>
  <path class="cls-0" d="m190.5 80.7 4-1.3"/>
  <path class="cls-0" d="m183.1 79 4.5-3.4c1-0.5 2.5 1.5-0.5 3.8-0.2 2.3 0 3.7-1.5 5.2"/>
  <path class="cls-0" d="m181.1 80.7-1 0.2h0.4"/>
  <path class="cls-0" d="m74.2 89.2c-2.8 2.8-4.6 2.9-6.5 4.8-2.2 2.1-2.3 2.9-2 3.9-1.1 2.1-0.3 2.6-0.3 3.1-0.8 2.5 0.1 2.6 1 2.2 0.2 1.5 1.2 1.9 2.2 0.4 1.8-2.4 5.9-4.5 6-4.5-1 3.5-1.2 5.3 0 5.4 0.8 0 1.1-1.1 1.5-2.1 0.6-1.4 1.8-2.8 2.3-4.5 0.5-1.4 1.5-1.5 1.5-1.5"/>
  <path class="cls-0" d="m65.7 97.9c0.9-1.8 3-3.3 3-3.3"/>
  <path class="cls-0" d="m65.4 101c1.3-3.6 4.2-5.4 4.2-5.4"/>
  <path class="cls-0" d="m66.4 103.2c1.1-3.6 4.6-6.1 4.6-6.1"/>
  <path class="cls-2" d="m143.6 47.9c0.9-0.3 1.6 5.5 1.3 7.7-0.7 4.5-4.5 5.8-7.7 5.6l-0.1 5.2c-2.7 1.1-7.5 0.2-9.2-3.2l2.2-9.3c-2.5 0.6-3.6-2.8-1.5-3.5h1.4c0.1-0.9 0.4-2 1-1.9 1.9 0.2 3.7 0.5 4.6-0.3 1.1 0.4 2.9-0.1 2.9-0.1 2 0.5 4.1 0.4 5.1-0.2z"/>
  <path class="cls-5" d="m128.6 58.6c-1.4 0.8-3.2 0-3.1-1.9-0.3-2.6-4.9-1.7-5-6.2 0.1-2.5 3.4-2.3 2.7-5.1-0.3-1.8-1.6-4 1.3-5 1.4-0.4 2.4 0 3.1-2 1-2.4 3-2.7 5-0.9 2.4 2.2 4.4-4.3 8-2.9 3 1.4 0.5 5.1 3 6.6 1.3 0.7 4.8-0.2 5.4 2.7 0.1 2.5-2 2.5-2.6 3.5-0.8 1.6 2.1 2.6-1.2 3.7"/>
  <path class="cls-4" d="m135.1 47.1c0.8 2 2.9 1.4 2.9 1.4 1 0.2 2.1 0.1 2.5-0.4 2.1 0.5 3-1.5 3-1.5"/>
  <path class="cls-4" d="m137.4 47.9c-0.8-1.3 0.5-2.4 1-1.4 0.2 0.9-0.5 1.2-0.5 1.4"/>
  <path class="cls-4" d="m139.9 48.1c-0.8-1.5 0.7-2.6 1-1.6 0.2 1.1-0.3 1.2-0.3 1.2"/>
  <path class="cls-4" d="m135.1 60.6c0.5 0.3 1.3 0.5 2.3 0.6"/>
  <path class="cls-6" d="m137.9 52.1c0-0.5 0.5-0.9 1-0.6 0.2 0.1 0.2 1.1-0.3 1.4-0.5 0.1-0.7-0.3-0.7-0.8z"/>
  <path class="cls-6" d="m142.4 52.1c0-0.4 0.6-0.6 1-0.4 0.2 0.2 0.2 1-0.2 1.2-0.6 0.2-0.8-0.3-0.8-0.8z"/>
  <path class="cls-4" d="m141.2 55c0.4-0.4 1-0.4 0.7-1l-0.7-2"/>
  <path class="cls-0" d="m145.9 84.9-1.4 6.5"/>
  <path class="cls-2" d="m79.9 96.4 1.5 1.2c0.5 0.3 1 0.3 1.1 0"/>
  <path class="cls-2" d="m180.5 80.9 0.6-0.2"/>
  <path class="cls-2" d="m182.6 90.1"/>
  <path class="cls-2" d="m182.4 90-0.3 3.4c-0.1 0.2-0.6 0.2-0.6 0.2"/>
  <path class="cls-6" d="m180.5 78.9 0.4 2.1-0.4 0.1-0.4-0.2-0.2-2.5 0.6 0.5z"/>
  <path class="cls-6" d="m181.9 90 0.5 3.1-0.5 0.4-0.8-3.5h0.8z"/>
  <path class="cls-11" d="m123.6 94c-0.2-0.6 0.5-1.4 1.3-1 1.6 0.6 0.6 2.1-0.4 2.1-0.9 0-0.9-0.5-0.9-1.1z"/>
  <path class="cls-11" d="m120.1 95.6c-0.7-1 1.3-1.7 1.9-0.6s-1.3 1.5-1.9 0.6z"/>
  <path class="cls-1" d="m121.6 93.1c-0.2-0.6 0.8-1.6 1.4-0.5 0.5 1.3-1.3 1.5-1.4 0.5z"/>
  <path class="cls-12" d="m122.6 96.1c0.9-0.7 2.1 0.3 1.8 0.9s-1 1-1.7 0.6c-0.6-0.2-0.3-1.1-0.1-1.5z"/>
</svg>