<svg width="95" height="101" viewBox="0 0 95 101" fill="none" xmlns="http://www.w3.org/2000/svg">
<path d="M36.5191 51.6445H95L83.579 101H25.098L36.5191 51.6445Z" fill="#006FFF"/>
<path d="M42.0028 31.4761L30.9268 19.0386L24.8548 39.6858L16.7068 35.0176L19.4079 52.3535L65.9268 84.3358L85.4204 57.6839L74.7875 57.2397L86.1582 33.0726L67.2559 41.2485L69.4711 0.826424L42.0028 31.4761Z" fill="#FF8A8A"/>
<path d="M34.6918 9.91709L38.8131 17.7681V9.91709H34.6918Z" fill="#FF8A8A"/>
<path d="M76.8463 17.7681L81.3563 5.99051L84.5344 11.1567L76.8463 17.7681Z" fill="#FF8A8A"/>
<path d="M48.2921 11.1567V0H54.4741L48.2921 11.1567Z" fill="#FF8A8A"/>
<path d="M21.5036 20.2474L19.4079 24.7927H22.3278L21.5036 20.2474Z" fill="#FF8A8A"/>
<path d="M88.681 48.3458L91.9781 47.1062V50.4119L88.681 48.3458Z" fill="#FF8A8A"/>
<mask id="mask0_14_93" style="mask-type:alpha" maskUnits="userSpaceOnUse" x="16" y="0" width="76" height="85">
<path d="M42.0028 31.4761L30.9268 19.0386L24.8548 39.6858L16.7068 35.0176L19.4079 52.3535L65.9268 84.3358L85.4204 57.6839L74.7875 57.2397L86.1582 33.0726L67.2559 41.2485L69.4711 0.826424L42.0028 31.4761Z" fill="#FF8A8A"/>
<path d="M34.6918 9.91709L38.8131 17.7681V9.91709H34.6918Z" fill="#FF8A8A"/>
<path d="M76.8463 17.7681L81.3563 5.99051L84.5344 11.1567L76.8463 17.7681Z" fill="#FF8A8A"/>
<path d="M48.2921 11.1567V0H54.4741L48.2921 11.1567Z" fill="#FF8A8A"/>
<path d="M21.5036 20.2474L19.4079 24.7927H22.3278L21.5036 20.2474Z" fill="#FF8A8A"/>
<path d="M88.681 48.3458L91.9781 47.1062V50.4119L88.681 48.3458Z" fill="#FF8A8A"/>
</mask>
<g mask="url(#mask0_14_93)">
<path fill-rule="evenodd" clip-rule="evenodd" d="M53.3075 -0.767725C53.8642 -0.830908 54.6156 -0.426055 54.6561 0.294711C54.6886 0.869795 54.1604 1.60988 53.5001 1.6469C52.9045 1.68071 52.1198 1.20221 52.1515 0.294711C52.1507 0.322479 52.2253 -0.0296547 52.2478 -0.0916302C52.3494 -0.369312 52.6745 -0.695689 53.3075 -0.767725Z" fill="#DF0A12" fill-opacity="0.5"/>
<path fill-rule="evenodd" clip-rule="evenodd" d="M47.3349 -0.477973C47.8169 -0.627278 48.5378 -0.375348 48.5872 0.294711C48.6293 0.866978 48.1216 1.32737 47.7202 1.35715C46.7898 1.42596 46.1347 -0.106121 47.3349 -0.477973Z" fill="#DF0A12" fill-opacity="0.5"/>
<path fill-rule="evenodd" clip-rule="evenodd" d="M67.661 1.6469C67.6698 1.64569 67.6766 1.5483 67.7573 1.55031C68.6913 1.57366 69.5475 2.2912 69.5876 3.19226C69.6342 4.24262 68.5432 5.2463 67.4683 4.93079C66.7711 4.72595 65.7853 3.85468 66.216 2.70934C66.3906 2.24492 66.8984 1.74872 67.661 1.6469Z" fill="#DF0A12" fill-opacity="0.5"/>
<path fill-rule="evenodd" clip-rule="evenodd" d="M50.2248 2.22641C50.8735 2.06141 51.6698 2.43487 51.6698 3.28885C51.6698 3.93717 51.1091 4.41849 50.6102 4.44787C50.0723 4.47966 49.3578 4.13236 49.3578 3.28885C49.3578 2.70209 49.5794 2.3906 50.2248 2.22641Z" fill="#DF0A12" fill-opacity="0.5"/>
<path fill-rule="evenodd" clip-rule="evenodd" d="M81.9182 4.35128C82.4476 4.24987 82.8719 4.33478 83.3632 4.64104C83.6185 4.8 83.828 4.93281 84.0375 5.41372C84.5469 6.5828 83.7549 8.06297 82.4003 8.1181C82.0462 8.13259 81.6059 8.02755 81.2439 7.82835C81.2029 7.80581 81.182 7.65087 81.1479 7.63517C80.9292 7.53617 80.7377 7.34461 80.5699 6.95908C80.2629 6.25401 80.4058 5.72842 80.7626 5.12396C80.9625 4.78471 81.2398 4.48167 81.9182 4.35128Z" fill="#DF0A12" fill-opacity="0.5"/>
<path fill-rule="evenodd" clip-rule="evenodd" d="M70.3583 4.44787C71.4581 4.21929 72.5739 5.00524 72.5739 6.1864C72.5739 7.18645 71.6849 8.02151 70.7436 8.02151C69.7883 8.02151 68.8643 7.30317 68.9133 6.08982C68.9482 5.21934 69.4094 4.64506 70.3583 4.44787Z" fill="#DF0A12" fill-opacity="0.5"/>
<path fill-rule="evenodd" clip-rule="evenodd" d="M64.3857 4.64104C65.2932 4.36496 65.638 4.54445 66.1197 5.02738C66.4171 5.32558 66.8289 5.87049 66.6013 6.76591C66.5207 7.08303 65.9322 7.72733 65.5417 7.82835C64.7229 8.04083 64.2336 7.7724 63.8077 7.34542C63.5095 7.04681 63.0908 6.5333 63.326 5.60689C63.3846 5.37549 63.79 4.82213 64.3857 4.64104Z" fill="#DF0A12" fill-opacity="0.5"/>
<path fill-rule="evenodd" clip-rule="evenodd" d="M47.3349 5.22055C48.0674 5.01812 48.6353 5.36462 48.6835 6.08982C48.7831 7.59051 46.6517 7.60459 46.5642 6.28298C46.5385 5.89262 46.5991 5.42418 47.3349 5.22055Z" fill="#DF0A12" fill-opacity="0.5"/>
<path fill-rule="evenodd" clip-rule="evenodd" d="M80.9549 10.4361C82.4681 9.16122 84.6055 10.5029 84.3265 12.3678C84.2671 12.7654 84.0672 12.9421 83.8448 13.3337C84.3534 13.0826 84.5436 12.885 85.0008 12.8508C86.3202 12.7522 87.255 13.8347 87.2169 14.9756C87.1711 16.3274 85.2999 17.6237 83.9416 16.4244C83.8493 16.6836 84.2575 16.8949 84.3269 17.2937C84.5613 18.6467 83.5322 20.0476 81.9186 19.8049C81.522 19.7453 81.3454 19.5449 80.9553 19.322C81.1764 19.79 81.4012 20.0033 81.4369 20.481C81.5345 21.7958 80.5446 22.6324 79.6066 22.7028C77.9834 22.824 76.6464 20.8327 77.8726 19.4189C77.6141 19.3264 77.4034 19.7357 77.0056 19.8053C75.6558 20.0403 74.2594 19.0085 74.501 17.3907C74.5604 16.9931 74.7603 16.816 74.9827 16.4248C74.4291 16.6627 74.226 16.8916 73.7303 16.9077C72.5354 16.9468 71.611 15.9435 71.611 14.8795C71.611 13.9241 72.3524 12.8512 73.634 12.8512C74.1606 12.8512 74.4605 13.0528 74.8863 13.3341C74.9586 13.0882 74.5612 12.8162 74.501 12.3682C74.2561 10.5432 76.3779 9.18214 77.8726 10.4365C77.6667 9.9335 77.4074 9.69525 77.391 9.18094C77.3488 7.88308 78.3836 7.08665 79.3176 7.05607C80.8401 7.00616 82.0611 8.7954 81.0516 10.2434C81.0327 10.321 80.9545 10.3392 80.9549 10.4361ZM78.2576 13.0439C78.5698 13.0001 78.7356 12.7972 79.1245 12.7542C79.8326 12.6753 80.2769 13.0468 80.5695 12.9474C80.2597 12.6443 80.1858 12.0455 80.2805 11.4986C80.356 11.0647 80.7927 10.8233 80.6659 10.6293C80.3243 10.8784 79.9313 11.1122 79.4135 11.1122C78.7456 11.1122 78.394 10.6502 78.0649 10.7259C78.6393 11.0877 78.6971 12.4809 78.2576 13.0439ZM75.6566 14.9756C75.6381 15.5399 75.2102 15.9016 75.2713 16.2312C75.5984 15.6501 77.0522 15.5769 77.5832 16.0381C77.4106 15.6095 77.2192 15.0956 77.2942 14.4927C77.334 14.1736 77.6743 13.9373 77.4869 13.72C77.1883 13.9933 76.6271 14.0955 76.1382 14.0098C75.7051 13.9337 75.3852 13.5619 75.1749 13.6234C75.4467 13.98 75.6742 14.4344 75.6566 14.9756ZM81.2439 13.72C81.4165 14.1486 81.6079 14.6625 81.5333 15.2654C81.4931 15.5849 81.1531 15.8208 81.3406 16.0381C81.583 15.6694 82.2738 15.7503 82.8819 15.7483C83.0754 15.8807 83.5474 16.2337 83.6526 16.1347C83.3407 15.7914 83.0746 15.162 83.1713 14.5893C83.2496 14.1249 83.6197 13.7929 83.5566 13.5269C83.2287 14.108 81.7749 14.1808 81.2439 13.72ZM79.7025 18.6459C80.1657 18.7243 80.4969 19.0954 80.7622 19.0322C80.1826 18.7042 80.1095 17.2462 80.5695 16.7138C80.1421 16.8868 79.6295 17.0788 79.0282 17.0039C78.7099 16.9637 78.4743 16.6228 78.2576 16.8108C78.6252 17.0538 78.5445 17.7464 78.5466 18.3561C78.4145 18.5501 78.0625 19.0234 78.1612 19.1288C78.5032 18.8157 79.1314 18.5489 79.7025 18.6459Z" fill="#DF0A12" fill-opacity="0.5"/>
<path fill-rule="evenodd" clip-rule="evenodd" d="M83.8448 10.5327C83.36 10.0816 83.1649 9.60067 83.2668 8.79419C83.4278 7.5257 84.5292 6.94218 85.6751 7.15225C86.2969 7.26614 86.9989 7.98691 87.1205 8.60103C87.4734 10.3887 85.2986 11.8853 83.8448 10.5327Z" fill="#DF0A12" fill-opacity="0.5"/>
<path fill-rule="evenodd" clip-rule="evenodd" d="M67.5647 7.34542C67.9841 7.277 68.6765 7.33978 69.106 7.73176C70.1295 8.66582 69.5973 10.9191 67.8537 10.9191C67.4792 10.9191 66.865 10.684 66.6013 10.4361C66.1197 9.9838 65.8632 8.93907 66.3123 8.21468C66.5636 7.80943 66.8382 7.46414 67.5647 7.34542Z" fill="#DF0A12" fill-opacity="0.5"/>
<path fill-rule="evenodd" clip-rule="evenodd" d="M61.6884 7.53859C62.7537 7.28908 63.8318 7.99254 63.7114 9.27712C63.6483 9.94758 63.0021 10.6358 62.3627 10.7259C61.5684 10.8378 60.3084 10.2526 60.4361 8.89079C60.4894 8.32134 60.8459 7.73579 61.6884 7.53859Z" fill="#DF0A12" fill-opacity="0.5"/>
<path fill-rule="evenodd" clip-rule="evenodd" d="M70.3583 10.1464C70.8881 10.0446 71.312 10.1299 71.8033 10.4361C72.0586 10.5955 72.2681 10.7279 72.4776 11.2088C72.9866 12.3783 72.1946 13.8581 70.84 13.9132C70.4863 13.9277 70.0456 13.8227 69.684 13.6234C69.643 13.6009 69.6222 13.446 69.5876 13.4303C69.3693 13.3317 69.1774 13.1397 69.0096 12.7542C68.7026 12.0487 68.8451 11.5231 69.2023 10.9191C69.4026 10.5798 69.68 10.2764 70.3583 10.1464Z" fill="#DF0A12" fill-opacity="0.5"/>
<path fill-rule="evenodd" clip-rule="evenodd" d="M64.482 10.3396C64.9352 10.2241 65.3546 10.1516 65.7343 10.3396C65.7773 10.3609 65.7954 10.5166 65.8307 10.5327C65.8776 10.5537 65.9828 10.5021 66.0233 10.5327C66.3244 10.7597 66.6688 11.3686 66.6977 11.4986C66.804 11.9763 66.6507 12.4672 66.505 12.7542C66.1606 13.4331 65.2109 14.0456 64.193 13.5269C63.6728 13.2617 62.9873 12.6379 63.2297 11.4986C63.2815 11.2555 63.7242 10.5528 64.2894 10.3396C64.3451 10.3182 64.4238 10.3544 64.482 10.3396Z" fill="#DF0A12" fill-opacity="0.5"/>
<path fill-rule="evenodd" clip-rule="evenodd" d="M58.7021 10.5327C59.156 10.4027 59.3708 10.3645 59.6654 10.4361C59.9644 10.5086 60.6243 11.0957 60.7251 11.5952C60.931 12.6153 60.1503 13.7245 58.8947 13.5269C58.2485 13.425 57.4779 12.8508 57.6424 11.6917C57.6994 11.2893 58.0041 10.7323 58.7021 10.5327Z" fill="#DF0A12" fill-opacity="0.5"/>
<path fill-rule="evenodd" clip-rule="evenodd" d="M36.064 11.6917C36.4653 11.5851 36.4653 12.3779 36.064 12.2713C36.064 12.0781 36.064 11.8849 36.064 11.6917Z" fill="#DF0A12" fill-opacity="0.5"/>
<path fill-rule="evenodd" clip-rule="evenodd" d="M67.372 13.1405C68.0094 12.9848 68.5067 13.0407 68.9133 13.3337C68.9466 13.3578 68.9799 13.5132 69.0096 13.5269C69.1674 13.5981 69.2818 13.6585 69.395 13.8166C69.6422 14.1615 69.7699 15.17 69.5876 15.6517C69.4536 16.0063 68.8547 16.5303 68.6243 16.6176C67.0521 17.2156 65.276 15.5374 66.3123 13.9132C66.5496 13.5413 66.7587 13.2902 67.372 13.1405Z" fill="#DF0A12" fill-opacity="0.5"/>
<path fill-rule="evenodd" clip-rule="evenodd" d="M61.592 13.3337C62.0577 13.2109 62.2475 13.1711 62.5554 13.2371C62.5457 13.2351 62.7974 13.3108 62.8444 13.3337C62.8873 13.355 62.9054 13.5108 62.9407 13.5269C63.4469 13.7554 63.8876 14.5346 63.7114 15.362C63.6255 15.7664 63.0515 16.4099 62.5554 16.521C62.1889 16.6027 61.5599 16.5528 61.3031 16.4244C61.2605 16.4031 61.242 16.2473 61.2067 16.2316C60.9807 16.1294 60.8603 15.991 60.6287 15.7487C60.5035 15.6179 60.314 14.9696 60.4361 14.3965C60.5087 14.0545 60.8872 13.5196 61.592 13.3337Z" fill="#DF0A12" fill-opacity="0.5"/>
<path fill-rule="evenodd" clip-rule="evenodd" d="M55.8121 13.5269C56.1842 13.417 56.5334 13.3711 56.7754 13.4303C57.005 13.4866 57.6529 14.046 57.7388 14.3961C58.0795 15.7837 56.7931 16.5697 55.8121 16.3278C55.5805 16.2707 54.923 15.6634 54.8488 15.3624C54.6461 14.5426 54.9527 13.7804 55.8121 13.5269Z" fill="#DF0A12" fill-opacity="0.5"/>
<path fill-rule="evenodd" clip-rule="evenodd" d="M38.7613 14.3961C39.019 14.2875 39.4629 14.3321 39.5319 14.7825C39.6395 15.4827 38.4566 15.7073 38.3759 14.9756C38.3519 14.7567 38.3478 14.5704 38.7613 14.3961Z" fill="#DF0A12" fill-opacity="0.5"/>
<path fill-rule="evenodd" clip-rule="evenodd" d="M70.3583 15.9415C70.8881 15.8401 71.312 15.9254 71.8033 16.2316C72.0586 16.3906 72.2681 16.5234 72.4776 17.0043C72.9866 18.1734 72.1946 19.6536 70.84 19.7087C70.4863 19.7228 70.0456 19.6182 69.684 19.419C69.643 19.3964 69.6222 19.2415 69.5876 19.2258C69.3693 19.1272 69.1774 18.9352 69.0096 18.5497C68.7026 17.8442 68.8451 17.3186 69.2023 16.7142C69.4026 16.3753 69.68 16.0719 70.3583 15.9415Z" fill="#DF0A12" fill-opacity="0.5"/>
<path fill-rule="evenodd" clip-rule="evenodd" d="M64.482 16.1347C64.9352 16.0192 65.3546 15.9467 65.7343 16.1347C65.7773 16.156 65.7954 16.3117 65.8307 16.3274C65.8776 16.3488 65.9828 16.2972 66.0233 16.3274C66.3244 16.5544 66.6688 17.1637 66.6977 17.2933C66.804 17.771 66.6507 18.2619 66.505 18.5489C66.1606 19.2282 65.2109 19.8407 64.193 19.3216C63.6728 19.0564 62.9873 18.4326 63.2297 17.2933C63.2815 17.0502 63.7242 16.3476 64.2894 16.1343C64.3451 16.1133 64.4238 16.1495 64.482 16.1347Z" fill="#DF0A12" fill-opacity="0.5"/>
<path fill-rule="evenodd" clip-rule="evenodd" d="M58.7021 16.3278C59.156 16.1982 59.3708 16.16 59.6654 16.2316C59.9644 16.3041 60.6243 16.8912 60.7251 17.3907C60.931 18.4104 60.1503 19.52 58.8947 19.3224C58.2485 19.2206 57.4779 18.6459 57.6424 17.4873C57.6994 17.084 58.0041 16.5274 58.7021 16.3278Z" fill="#DF0A12" fill-opacity="0.5"/>
<path fill-rule="evenodd" clip-rule="evenodd" d="M53.0185 16.521C53.3167 16.4397 53.5535 16.3701 53.7891 16.4244C54.1299 16.5029 54.7027 17.1114 54.7525 17.5834C54.8351 18.3698 54.2475 19.06 53.5965 19.1288C52.9587 19.1964 51.9925 18.8668 52.0551 17.68C52.0816 17.1802 52.312 16.7142 53.0185 16.521Z" fill="#DF0A12" fill-opacity="0.5"/>
<path fill-rule="evenodd" clip-rule="evenodd" d="M74.9823 19.2254C75.4671 19.6765 75.6626 20.1574 75.5602 20.9639C75.3993 22.2324 74.2983 22.8163 73.1519 22.6059C72.5306 22.492 71.8282 21.7712 71.707 21.1567C71.3537 19.3695 73.528 17.8724 74.9823 19.2254Z" fill="#DF0A12" fill-opacity="0.5"/>
<path fill-rule="evenodd" clip-rule="evenodd" d="M83.7485 19.322C84.1985 18.8358 84.6781 18.6402 85.4825 18.7425C86.7477 18.9038 87.3301 20.0081 87.1201 21.1571C87.0065 21.7805 86.2877 22.4843 85.6747 22.6063C83.8922 22.96 82.399 20.7796 83.7485 19.322Z" fill="#DF0A12" fill-opacity="0.5"/>
<path fill-rule="evenodd" clip-rule="evenodd" d="M67.5647 18.9356C67.9841 18.8672 68.6765 18.9296 69.106 19.322C70.1295 20.256 69.5973 22.5093 67.8537 22.5093C67.4792 22.5093 66.865 22.2743 66.6013 22.0263C66.1197 21.574 65.8632 20.5293 66.3123 19.8049C66.5636 19.3992 66.8382 19.0543 67.5647 18.9356Z" fill="#DF0A12" fill-opacity="0.5"/>
<path fill-rule="evenodd" clip-rule="evenodd" d="M61.6884 19.1288C62.7537 18.8797 63.8318 19.5831 63.7114 20.8673C63.6483 21.5378 63.0021 22.226 62.3627 22.3165C61.5684 22.428 60.3084 21.8432 60.4361 20.481C60.4894 19.9115 60.8459 19.326 61.6884 19.1288Z" fill="#DF0A12" fill-opacity="0.5"/>
<path fill-rule="evenodd" clip-rule="evenodd" d="M55.9084 19.322C56.2203 19.2443 56.4086 19.1707 56.6791 19.2254C57.1006 19.3107 57.6617 19.8604 57.7388 20.3844C57.8712 21.2855 57.2607 22.0227 56.5828 22.1229C55.7447 22.2469 54.7372 21.6819 54.8488 20.481C54.8941 19.994 55.1478 19.5115 55.9084 19.322Z" fill="#DF0A12" fill-opacity="0.5"/>
<path fill-rule="evenodd" clip-rule="evenodd" d="M64.3857 22.0263C65.2932 21.7507 65.638 21.9298 66.1197 22.4127C66.4171 22.7109 66.8289 23.2558 66.6013 24.1512C66.5207 24.4683 65.9322 25.1126 65.5417 25.2137C64.7229 25.4261 64.2336 25.1577 63.8077 24.7311C63.5095 24.4321 63.0908 23.9186 63.326 22.9926C63.3846 22.7608 63.79 22.2074 64.3857 22.0263Z" fill="#DF0A12" fill-opacity="0.5"/>
<path fill-rule="evenodd" clip-rule="evenodd" d="M58.9911 22.1229C59.0276 22.1177 59.077 22.0119 59.1837 22.0263C59.8404 22.1169 60.1804 22.3869 60.4361 22.799C60.4898 22.886 60.7126 23.2264 60.7251 23.4755C60.7841 24.6716 59.4286 25.4608 58.4131 24.8273C58.094 24.6285 57.6424 24.2337 57.6424 23.5717C57.6424 23.3838 57.7343 22.9459 57.8351 22.799C57.8588 22.7644 58.0137 22.7334 58.0278 22.7028C58.1666 22.3938 58.3866 22.2078 58.9911 22.1229Z" fill="#DF0A12" fill-opacity="0.5"/>
<path fill-rule="evenodd" clip-rule="evenodd" d="M53.3075 22.3161C53.6663 22.2775 54.1347 22.3728 54.3671 22.6059C54.8343 23.0739 54.7268 24.177 54.3671 24.5376C53.9396 24.9658 52.8884 24.9867 52.4405 24.5376C52.2755 24.3722 52.0383 23.7894 52.0551 23.4751C52.0652 23.292 52.2631 22.8027 52.3441 22.7024C52.5404 22.4602 52.9318 22.3563 53.3075 22.3161Z" fill="#DF0A12" fill-opacity="0.5"/>
<path fill-rule="evenodd" clip-rule="evenodd" d="M67.661 24.8273C67.6698 24.8261 67.6766 24.7287 67.7573 24.7311C68.6913 24.7541 69.5475 25.4716 69.5876 26.3727C69.6342 27.423 68.5432 28.4271 67.4683 28.1112C66.7711 27.9064 65.7853 27.0351 66.216 25.8897C66.3906 25.4253 66.8984 24.9291 67.661 24.8273Z" fill="#DF0A12" fill-opacity="0.5"/>
<path fill-rule="evenodd" clip-rule="evenodd" d="M61.6884 25.0205C63.194 24.6679 63.9478 26.0362 63.5187 27.1454C63.3152 27.6709 62.4032 28.3084 61.3994 27.918C60.424 27.5385 60.0527 25.4032 61.6884 25.0205Z" fill="#DF0A12" fill-opacity="0.5"/>
<path fill-rule="evenodd" clip-rule="evenodd" d="M55.8121 25.2137C56.2091 25.0861 56.7008 25.0297 56.9681 25.2137C57.0026 25.2378 57.0339 25.3931 57.0644 25.4068C57.2141 25.4744 57.5706 25.707 57.6424 25.9859C57.7636 26.4552 57.6107 26.9904 57.4498 27.2415C57.1808 27.6621 56.2432 28.0911 55.5231 27.6279C54.7749 27.1466 54.667 25.5831 55.8121 25.2137Z" fill="#DF0A12" fill-opacity="0.5"/>
<path fill-rule="evenodd" clip-rule="evenodd" d="M50.2248 25.4068C50.8735 25.2418 51.6698 25.6157 51.6698 26.4693C51.6698 27.1176 51.1091 27.5993 50.6102 27.6283C50.0723 27.6601 49.3578 27.3132 49.3578 26.4693C49.3578 25.8825 49.5794 25.571 50.2248 25.4068Z" fill="#DF0A12" fill-opacity="0.5"/>
<path fill-rule="evenodd" clip-rule="evenodd" d="M64.482 27.918C64.8264 27.8214 65.4269 27.7804 65.8307 28.0142C65.8704 28.0376 65.8933 28.1921 65.927 28.2074C66.208 28.3342 66.029 28.1056 66.3123 28.5937C66.5102 28.9346 66.6057 29.727 66.3123 30.2357C66.2895 30.2755 66.1349 30.2985 66.1197 30.3323C66.037 30.5158 66.0113 30.5572 65.7343 30.7186C64.9781 31.1597 63.1839 30.8329 63.4224 29.0767C63.4826 28.6336 63.7619 28.1193 64.482 27.918Z" fill="#DF0A12" fill-opacity="0.5"/>
<path fill-rule="evenodd" clip-rule="evenodd" d="M58.9911 28.0146C60.9852 27.7068 61.114 30.8156 59.1837 30.8156C58.5576 30.8156 57.7388 30.356 57.7388 29.3668C57.7388 28.6102 58.1979 28.137 58.9911 28.0146Z" fill="#DF0A12" fill-opacity="0.5"/>
<path fill-rule="evenodd" clip-rule="evenodd" d="M53.3075 28.2078C53.8642 28.1446 54.6156 28.5499 54.6561 29.2702C54.6886 29.8453 54.1604 30.5854 53.5001 30.6224C52.9045 30.6562 52.1198 30.1777 52.1515 29.2702C52.1507 29.298 52.2253 28.9459 52.2478 28.8839C52.3494 28.6062 52.6745 28.2798 53.3075 28.2078Z" fill="#DF0A12" fill-opacity="0.5"/>
<path fill-rule="evenodd" clip-rule="evenodd" d="M47.3349 28.4975C47.8169 28.3482 48.5378 28.6002 48.5872 29.2702C48.6293 29.8425 48.1216 30.3029 47.7202 30.3331C46.7898 30.4015 46.1347 28.8694 47.3349 28.4975Z" fill="#DF0A12" fill-opacity="0.5"/>
<path fill-rule="evenodd" clip-rule="evenodd" d="M84.8082 30.719C85.1236 30.649 85.5784 30.6204 85.9641 30.8152C86.3093 30.9902 86.7786 31.4132 86.8311 32.0708C86.9026 32.9678 86.2375 34.0214 85.0972 33.9063C84.353 33.8311 83.4551 33.3361 83.5558 32.0708C83.6032 31.4804 83.9388 30.911 84.8082 30.719Z" fill="#DF0A12" fill-opacity="0.5"/>
<path fill-rule="evenodd" clip-rule="evenodd" d="M67.372 30.8156C67.826 30.686 68.0403 30.6478 68.3353 30.7194C68.6343 30.7918 69.2942 31.379 69.395 31.8784C69.6005 32.8982 68.8202 34.0077 67.5647 33.8101C66.9184 33.7083 66.1478 33.1336 66.3123 31.975C66.3693 31.5718 66.674 31.0152 67.372 30.8156Z" fill="#DF0A12" fill-opacity="0.5"/>
<path fill-rule="evenodd" clip-rule="evenodd" d="M61.7847 30.9122C63.8575 30.4816 64.0293 33.6162 62.17 33.7131C60.5095 33.8001 60.0094 31.2812 61.7847 30.9122Z" fill="#DF0A12" fill-opacity="0.5"/>
<path fill-rule="evenodd" clip-rule="evenodd" d="M56.0048 31.1053C57.87 30.6852 58.0125 33.4351 56.3901 33.52C55.6881 33.5566 55.0414 33.128 55.0414 32.2644C55.0414 31.604 55.3068 31.2627 56.0048 31.1053Z" fill="#DF0A12" fill-opacity="0.5"/>
<path fill-rule="evenodd" clip-rule="evenodd" d="M50.4175 31.2985C50.5873 31.2752 50.8422 31.2257 50.9955 31.2985C51.095 31.3456 51.4519 31.7263 51.4771 31.7814C51.5923 32.037 51.5574 32.5694 51.4771 32.7473C51.4511 32.8056 50.9754 33.2391 50.9955 33.2298C50.0779 33.6459 49.2053 32.5259 49.5505 31.781C49.5529 31.7758 49.9635 31.3279 50.0322 31.2981C50.1321 31.2551 50.3083 31.3134 50.4175 31.2985Z" fill="#DF0A12" fill-opacity="0.5"/>
<path fill-rule="evenodd" clip-rule="evenodd" d="M45.3119 31.7814C45.7976 32.6282 44.7905 33.3107 44.1559 32.7473C43.6702 31.9006 44.6773 31.2184 45.3119 31.7814Z" fill="#DF0A12" fill-opacity="0.5"/>
<path fill-rule="evenodd" clip-rule="evenodd" d="M38.7613 32.0712C38.8897 32.0712 39.0182 32.0712 39.1466 32.0712C39.1466 32.2 39.1466 32.3292 39.1466 32.4575C38.8151 32.5324 38.6866 32.404 38.7613 32.0712Z" fill="#DF0A12" fill-opacity="0.5"/>
<path fill-rule="evenodd" clip-rule="evenodd" d="M70.4546 33.7131C71.1298 33.5908 71.6323 33.8045 71.8996 34.0995C71.9943 34.2041 72.2717 34.7655 72.2849 35.0653C72.3789 37.1524 69.2023 37.2622 69.2023 35.1619C69.2023 34.9663 69.2545 34.7003 69.2986 34.5824C69.46 34.1514 69.8212 33.8278 70.4546 33.7131Z" fill="#DF0A12" fill-opacity="0.5"/>
<path fill-rule="evenodd" clip-rule="evenodd" d="M81.8219 33.7131C82.1662 33.617 82.7667 33.5759 83.1705 33.8097C83.2102 33.8327 83.2331 33.9876 83.2664 34.0025C83.5474 34.1297 83.3688 33.9011 83.6518 34.3892C83.8497 34.7301 83.9452 35.5221 83.6518 36.0308C83.6289 36.0706 83.4748 36.094 83.4595 36.1274C83.3768 36.3113 83.3507 36.3523 83.0742 36.5137C82.318 36.9552 80.5238 36.6284 80.7622 34.8718C80.8224 34.4283 81.1018 33.9148 81.8219 33.7131Z" fill="#DF0A12" fill-opacity="0.5"/>
<path fill-rule="evenodd" clip-rule="evenodd" d="M64.771 33.8097C66.7651 33.5019 66.8939 36.6107 64.9637 36.6107C64.3375 36.6107 63.5187 36.1511 63.5187 35.1619C63.5187 34.4057 63.9775 33.9325 64.771 33.8097Z" fill="#DF0A12" fill-opacity="0.5"/>
<path fill-rule="evenodd" clip-rule="evenodd" d="M58.7984 34.0029C59.5221 33.7924 60.3112 34.122 60.4361 34.8722C60.5569 35.601 60.0796 36.3161 59.4727 36.4175C58.8381 36.5238 57.8688 36.2549 57.9314 35.0657C57.9559 34.6045 58.1217 34.2001 58.7984 34.0029Z" fill="#DF0A12" fill-opacity="0.5"/>
<path fill-rule="evenodd" clip-rule="evenodd" d="M53.1148 34.1961C53.4556 34.1035 53.7691 34.087 53.9818 34.1961C54.1813 34.2987 54.4277 34.7039 54.4635 34.9687C54.6653 36.471 52.4425 36.7294 52.3441 35.2585C52.298 34.5691 52.5115 34.3599 53.1148 34.1961Z" fill="#DF0A12" fill-opacity="0.5"/>
<path fill-rule="evenodd" clip-rule="evenodd" d="M47.3349 34.4858C48.7333 33.8991 48.6514 36.3105 47.3349 35.935C46.7348 35.7636 46.7063 34.7498 47.3349 34.4858Z" fill="#DF0A12" fill-opacity="0.5"/>
<path fill-rule="evenodd" clip-rule="evenodd" d="M41.4586 35.2585C41.4353 34.6633 42.2529 34.6633 42.2292 35.2585C42.0566 35.5949 41.6312 35.5949 41.4586 35.2585Z" fill="#DF0A12" fill-opacity="0.5"/>
<path fill-rule="evenodd" clip-rule="evenodd" d="M73.2483 36.7073C73.5601 36.6296 73.7484 36.556 74.0189 36.6107C74.4404 36.696 75.0015 37.2457 75.0786 37.7697C75.211 38.6704 74.6005 39.408 73.9226 39.5082C73.0849 39.6322 72.077 39.0668 72.1886 37.8663C72.234 37.3793 72.4876 36.8968 73.2483 36.7073Z" fill="#DF0A12" fill-opacity="0.5"/>
<path fill-rule="evenodd" clip-rule="evenodd" d="M78.9319 36.7073C79.304 36.5978 79.6536 36.5515 79.8952 36.6107C80.1248 36.667 80.7726 37.2264 80.8581 37.5765C81.1989 38.9641 79.9129 39.7501 78.9315 39.5082C78.6999 39.4507 78.0428 38.8434 77.9682 38.5424C77.7659 37.7234 78.0725 36.9604 78.9319 36.7073Z" fill="#DF0A12" fill-opacity="0.5"/>
<path fill-rule="evenodd" clip-rule="evenodd" d="M84.8082 36.7073C85.1196 36.6296 85.3083 36.556 85.5788 36.6107C86.0003 36.696 86.561 37.2457 86.6385 37.7697C86.7709 38.6704 86.1608 39.408 85.4825 39.5082C84.6444 39.6322 83.6365 39.0668 83.7485 37.8663C83.7939 37.3793 84.0475 36.8968 84.8082 36.7073Z" fill="#DF0A12" fill-opacity="0.5"/>
<path fill-rule="evenodd" clip-rule="evenodd" d="M67.372 36.8039C67.769 36.6759 68.2607 36.6195 68.528 36.8039C68.5629 36.8276 68.5938 36.9829 68.6243 36.9966C68.774 37.0642 69.1301 37.2973 69.2023 37.5761C69.3235 38.045 69.1702 38.5806 69.0096 38.8313C68.7407 39.2519 67.8031 39.6809 67.083 39.2181C66.3348 38.7372 66.2268 37.1729 67.372 36.8039Z" fill="#DF0A12" fill-opacity="0.5"/>
<path fill-rule="evenodd" clip-rule="evenodd" d="M61.7847 36.9005C63.65 36.4807 63.7924 39.2302 62.17 39.3151C61.468 39.3521 60.8214 38.9235 60.8214 38.0595C60.8214 37.3987 61.0867 37.0574 61.7847 36.9005Z" fill="#DF0A12" fill-opacity="0.5"/>
<path fill-rule="evenodd" clip-rule="evenodd" d="M55.9084 37.0936C56.5555 36.8707 57.2338 37.156 57.3534 37.7697C57.4863 38.451 57.0387 39.033 56.5828 39.1219C55.3646 39.3606 54.6112 37.5407 55.9084 37.0936Z" fill="#DF0A12" fill-opacity="0.5"/>
<path fill-rule="evenodd" clip-rule="evenodd" d="M50.4175 37.2868C50.7129 37.2337 51.0798 37.35 51.1882 37.48C51.3945 37.7271 51.3527 38.5162 51.0918 38.7356C50.8434 38.944 50.1245 38.9798 49.8395 38.639C49.6709 38.437 49.6223 37.7263 49.8395 37.48C49.9567 37.3468 50.2007 37.3258 50.4175 37.2868Z" fill="#DF0A12" fill-opacity="0.5"/>
<path fill-rule="evenodd" clip-rule="evenodd" d="M45.2155 38.156C45.0229 38.606 44.4453 38.606 44.2522 38.156C44.2514 37.447 45.2163 37.447 45.2155 38.156Z" fill="#DF0A12" fill-opacity="0.5"/>
<path fill-rule="evenodd" clip-rule="evenodd" d="M70.551 39.7014C71.0519 39.6217 71.4878 39.7722 71.707 39.9916C72.3977 40.6834 71.9277 42.2545 70.84 42.3096C70.0842 42.3478 69.1 41.4826 69.4913 40.4741C69.6495 40.0664 69.9529 39.7968 70.551 39.7014Z" fill="#DF0A12" fill-opacity="0.5"/>
<path fill-rule="evenodd" clip-rule="evenodd" d="M76.1382 39.7014C76.9547 39.4837 77.4126 39.7433 77.7759 40.3779C78.1801 41.0842 77.527 42.1949 76.8126 42.3096C76.1129 42.4219 75.0489 41.9518 75.1749 40.7643C75.2211 40.3292 75.4471 39.8861 76.1382 39.7014Z" fill="#DF0A12" fill-opacity="0.5"/>
<path fill-rule="evenodd" clip-rule="evenodd" d="M81.9182 39.7014C82.7342 39.4837 83.1926 39.7433 83.5558 40.3779C83.96 41.0842 83.307 42.1949 82.5925 42.3096C81.8929 42.4219 80.8284 41.9518 80.9549 40.7643C81.001 40.3292 81.227 39.8861 81.9182 39.7014Z" fill="#DF0A12" fill-opacity="0.5"/>
<path fill-rule="evenodd" clip-rule="evenodd" d="M64.8674 39.798C65.4241 39.7348 66.1755 40.1401 66.216 40.8604C66.2485 41.4359 65.7203 42.1756 65.06 42.2126C64.464 42.2464 63.6797 41.7683 63.7114 40.8604C63.7106 40.8882 63.7852 40.5361 63.8077 40.4741C63.9092 40.1964 64.2344 39.87 64.8674 39.798Z" fill="#DF0A12" fill-opacity="0.5"/>
<path fill-rule="evenodd" clip-rule="evenodd" d="M58.8947 39.9912C59.2355 39.8986 59.549 39.8821 59.7617 39.9912C59.9612 40.0934 60.2077 40.4986 60.2434 40.7639C60.4453 42.2662 58.222 42.5241 58.1241 41.0536C58.0779 40.3638 58.2915 40.1554 58.8947 39.9912Z" fill="#DF0A12" fill-opacity="0.5"/>
<path fill-rule="evenodd" clip-rule="evenodd" d="M53.2111 40.1843C53.5423 40.0962 53.8959 40.1666 54.0781 40.3775C54.0962 40.398 54.2636 40.7735 54.2708 40.86C54.3137 41.3852 53.8614 41.7965 53.5001 41.8259C52.6757 41.8939 51.9572 40.5184 53.2111 40.1843Z" fill="#DF0A12" fill-opacity="0.5"/>
<path fill-rule="evenodd" clip-rule="evenodd" d="M48.1055 40.6673C48.2067 41.2838 47.9498 41.5414 47.3349 41.4399C46.6963 40.9313 47.5982 40.0266 48.1055 40.6673Z" fill="#DF0A12" fill-opacity="0.5"/>
<path fill-rule="evenodd" clip-rule="evenodd" d="M73.4409 42.6955C73.4815 42.6879 73.526 42.5921 73.6336 42.599C74.3308 42.6424 74.8534 43.1897 74.8859 43.758C74.9249 44.4389 74.2726 45.0788 73.7299 45.1102C73.1435 45.144 72.3813 44.622 72.3813 43.8546C72.3813 43.2123 72.8176 42.8082 73.4409 42.6955Z" fill="#DF0A12" fill-opacity="0.5"/>
<path fill-rule="evenodd" clip-rule="evenodd" d="M79.1245 42.6955C80.9902 42.2754 81.1323 45.0253 79.5099 45.1102C78.8079 45.1468 78.1612 44.7182 78.1612 43.8546C78.1612 43.1938 78.4265 42.8529 79.1245 42.6955Z" fill="#DF0A12" fill-opacity="0.5"/>
<path fill-rule="evenodd" clip-rule="evenodd" d="M67.5647 42.7921C68.2129 42.6271 69.0096 43.0006 69.0096 43.8546C69.0096 44.5029 68.4489 44.9842 67.95 45.0136C67.4121 45.0454 66.6977 44.6985 66.6977 43.8546C66.6977 43.2678 66.9196 42.9567 67.5647 42.7921Z" fill="#DF0A12" fill-opacity="0.5"/>
<path fill-rule="evenodd" clip-rule="evenodd" d="M61.9774 42.8887C62.1472 42.8654 62.402 42.8159 62.5554 42.8887C62.6549 42.9362 63.0121 43.3165 63.037 43.3716C63.1522 43.6272 63.1173 44.1596 63.037 44.3375C63.0105 44.3963 62.5353 44.8297 62.5554 44.8204C61.6378 45.2361 60.7652 44.1162 61.1104 43.3712C61.1128 43.366 61.5238 42.9181 61.592 42.8883C61.692 42.8453 61.8686 42.9036 61.9774 42.8887Z" fill="#DF0A12" fill-opacity="0.5"/>
<path fill-rule="evenodd" clip-rule="evenodd" d="M56.1974 43.0819C56.4925 43.0284 56.8593 43.1451 56.9681 43.2747C57.1744 43.5222 57.1331 44.3113 56.8718 44.5303C56.6237 44.7387 55.9044 44.7749 55.6194 44.4341C55.4509 44.2317 55.4019 43.5214 55.6194 43.2747C55.7366 43.1419 55.9807 43.1213 56.1974 43.0819Z" fill="#DF0A12" fill-opacity="0.5"/>
<path fill-rule="evenodd" clip-rule="evenodd" d="M50.9955 43.5648C51.0962 44.181 50.8397 44.4389 50.2248 44.3375C49.5858 43.8292 50.4885 42.9241 50.9955 43.5648Z" fill="#DF0A12" fill-opacity="0.5"/>
<path fill-rule="evenodd" clip-rule="evenodd" d="M76.4272 45.6897C78.0637 45.4905 77.9537 48.0105 76.4272 47.9115C75.2781 47.8367 74.9064 45.8752 76.4272 45.6897Z" fill="#DF0A12" fill-opacity="0.5"/>
<path fill-rule="evenodd" clip-rule="evenodd" d="M70.4546 45.7863C70.7954 45.6941 71.1085 45.6772 71.3216 45.7863C71.5215 45.8889 71.7676 46.2942 71.8033 46.559C72.0052 48.0613 69.7819 48.3196 69.684 46.8491C69.6382 46.1593 69.8513 45.9501 70.4546 45.7863Z" fill="#DF0A12" fill-opacity="0.5"/>
<path fill-rule="evenodd" clip-rule="evenodd" d="M64.6747 45.8829C65.1567 45.7336 65.8776 45.9855 65.927 46.6555C65.9692 47.2278 65.4614 47.6882 65.06 47.718C64.1296 47.7868 63.4745 46.2547 64.6747 45.8829Z" fill="#DF0A12" fill-opacity="0.5"/>
<path fill-rule="evenodd" clip-rule="evenodd" d="M58.8947 46.076C60.2932 45.4893 60.2113 47.9007 58.8947 47.5252C58.2947 47.3534 58.2658 46.34 58.8947 46.076Z" fill="#DF0A12" fill-opacity="0.5"/>
<path fill-rule="evenodd" clip-rule="evenodd" d="M53.8855 46.4624C53.9866 47.0785 53.7297 47.3361 53.1148 47.235C52.4762 46.7268 53.3781 45.8221 53.8855 46.4624Z" fill="#DF0A12" fill-opacity="0.5"/>
<path fill-rule="evenodd" clip-rule="evenodd" d="M73.4409 48.7804C73.9186 48.6701 74.5403 48.8613 74.5969 49.5531C74.7041 50.8614 72.6703 50.9367 72.6703 49.6497C72.6703 49.3434 72.7542 48.9394 73.4409 48.7804Z" fill="#DF0A12" fill-opacity="0.5"/>
<path fill-rule="evenodd" clip-rule="evenodd" d="M67.5647 48.877C68.8326 48.4206 69.1008 50.4232 67.95 50.5185C67.1504 50.5857 66.458 49.275 67.5647 48.877Z" fill="#DF0A12" fill-opacity="0.5"/>
<path fill-rule="evenodd" clip-rule="evenodd" d="M90.6844 48.877C91.9524 48.4206 92.2205 50.4232 91.0698 50.5185C90.2702 50.5857 89.5778 49.275 90.6844 48.877Z" fill="#DF0A12" fill-opacity="0.5"/>
<path fill-rule="evenodd" clip-rule="evenodd" d="M62.6517 49.1668C63.1374 50.0135 62.1303 50.696 61.4957 50.1322C61.01 49.2859 62.0171 48.6037 62.6517 49.1668Z" fill="#DF0A12" fill-opacity="0.5"/>
<path fill-rule="evenodd" clip-rule="evenodd" d="M56.7754 49.7463C56.5828 50.1962 56.0048 50.1962 55.8121 49.7463C55.8113 49.0372 56.7762 49.0372 56.7754 49.7463Z" fill="#DF0A12" fill-opacity="0.5"/>
<path fill-rule="evenodd" clip-rule="evenodd" d="M76.2346 51.8711C77.633 51.284 77.5511 53.6958 76.2346 53.3199C75.6345 53.1485 75.606 52.1351 76.2346 51.8711Z" fill="#DF0A12" fill-opacity="0.5"/>
<path fill-rule="evenodd" clip-rule="evenodd" d="M70.3583 51.9677C70.667 51.6957 71.2803 51.9404 71.418 52.1605C71.7776 53.2535 70.5084 53.5103 70.0693 52.9332C70.0645 52.5102 70.0019 52.0293 70.3583 51.9677Z" fill="#DF0A12" fill-opacity="0.5"/>
<path fill-rule="evenodd" clip-rule="evenodd" d="M64.771 52.0643C65.0287 51.9552 65.4726 52.0003 65.5417 52.4506C65.6493 53.1509 64.4664 53.375 64.3857 52.6434C64.3616 52.4249 64.3576 52.2386 64.771 52.0643Z" fill="#DF0A12" fill-opacity="0.5"/>
<path fill-rule="evenodd" clip-rule="evenodd" d="M58.7984 52.6438C58.7747 52.0486 59.5924 52.0486 59.5691 52.6438C59.3965 52.9803 58.971 52.9803 58.7984 52.6438Z" fill="#DF0A12" fill-opacity="0.5"/>
<path fill-rule="evenodd" clip-rule="evenodd" d="M74.1153 55.155C74.2164 55.7716 73.9595 56.0291 73.3446 55.9277C72.706 55.419 73.6083 54.5143 74.1153 55.155Z" fill="#DF0A12" fill-opacity="0.5"/>
<path fill-rule="evenodd" clip-rule="evenodd" d="M68.239 55.3482C68.2687 55.7321 68.0539 55.8714 67.661 55.8311C67.6184 55.745 67.5763 55.6585 67.4683 55.6384C67.2877 55.0045 68.1358 54.8806 68.239 55.3482Z" fill="#DF0A12" fill-opacity="0.5"/>
<path fill-rule="evenodd" clip-rule="evenodd" d="M62.3627 55.5414C62.1712 55.5426 62.2403 55.805 61.9774 55.7341C61.9348 55.6484 61.8927 55.5615 61.7847 55.5414C61.7667 55.0681 62.3808 55.0681 62.3627 55.5414Z" fill="#DF0A12" fill-opacity="0.5"/>
<path fill-rule="evenodd" clip-rule="evenodd" d="M76.8126 58.3423C76.6139 58.2836 76.1435 58.4985 76.2346 58.1492C76.3815 58.0003 76.8953 57.9773 76.8126 58.3423Z" fill="#DF0A12" fill-opacity="0.5"/>
<path fill-rule="evenodd" clip-rule="evenodd" d="M82.5925 58.3423C82.3938 58.2836 81.9234 58.4985 82.0149 58.1492C82.1614 58.0003 82.6752 57.9773 82.5925 58.3423Z" fill="#DF0A12" fill-opacity="0.5"/>
</g>
<path d="M37.2016 41.4614L33.3612 56.4355L58.9641 76.9715L71.7656 51.3015L58.9641 57.719L56.8305 33.3325L40.6154 48.3067L37.2016 41.4614Z" fill="#FEE798"/>
<path d="M0 45.1292H42.7869L44.559 56.436H74.6856L83.5463 101L8.86075 101L0 45.1292Z" fill="white"/>
<path d="M5.8075 75.7148L4.96663 70.572L10.6526 73.9441L8.62294 77.3845L5.8075 75.7148Z" fill="#E4ECFF"/>
<path d="M8.68535 93.3157L7.41763 85.5624L14.2601 93.77L11.2012 96.3335L8.68535 93.3157Z" fill="#E4ECFF"/>
<path d="M3.94061 47.9864L5.98519 46.3633H7.74394L13.872 54.123L10.7464 56.6043L3.94061 47.9864Z" fill="#E4ECFF"/>
<path d="M24.482 50.7016L27.1725 46.3633H31.8672L27.8676 52.8123L24.482 50.7016Z" fill="#E4ECFF"/>
<path d="M28.5295 62.2494L30.8022 65.5335L21.7946 71.7999L19.5219 68.5158L28.5295 62.2494Z" fill="#E4ECFF"/>
<path d="M32.5928 82.1003L29.1416 80.0993L23.6531 89.615L27.1043 91.616L32.5928 82.1003Z" fill="#E4ECFF"/>
<path d="M72.527 82.2002L69.1308 80.1068L63.3889 89.471L66.7851 91.5644L72.527 82.2002Z" fill="#E4ECFF"/>
<path d="M43.0408 86.8698L46.1248 84.3367L53.0726 92.8399L49.9886 95.373L43.0408 86.8698Z" fill="#E4ECFF"/>
<path d="M50.4531 74.0523L48.5126 77.5441L38.9354 72.1938L40.8758 68.7021L50.4531 74.0523Z" fill="#E4ECFF"/>
<path d="M68.1583 62.3521L70.3432 65.6955L61.1727 71.7198L58.9878 68.3763L68.1583 62.3521Z" fill="#E4ECFF"/>
<path d="M41.9316 46.1292L43.5713 56.5911L43.7031 57.4358H73.8652L82.3281 100H9.71484L1.1709 46.1292H41.9316Z" stroke="#006FFF" stroke-width="2"/>
</svg>
