<svg width="305" height="205" viewBox="0 0 305 205" fill="none" xmlns="http://www.w3.org/2000/svg">
<path d="M55.2557 1.80003C-5.67764 12.8667 -18.211 57.2667 27.6557 99.8001C58.589 128.333 111.122 154.067 150.589 159.933C165.522 162.067 187.656 160.867 198.856 157.267C215.389 152.067 225.656 138.467 223.256 125.133C219.522 105 193.656 85.1334 159.389 76.3334C137.922 70.8667 103.389 70.3334 101.656 75.5334C100.989 77.5334 103.656 77.9334 126.056 79.6667C148.589 81.4001 165.389 85.6667 182.056 93.8001C202.722 103.933 214.722 117.267 214.722 130.067C214.722 143.667 196.589 153.133 170.189 153.133C126.589 153.133 66.589 126.333 31.389 91.1334C14.7224 74.4667 8.85569 64.0667 8.85569 50.4667C8.72236 43.2667 9.38902 40.7334 12.4557 35.4C30.0557 5.40005 94.8557 0.466705 170.722 23.4C212.189 35.8 242.322 48.4667 267.256 63.6667C284.856 74.4667 298.722 80.0667 289.789 72.7334C282.589 66.7334 249.922 46.7334 236.722 40.2001C202.989 23.4001 151.522 7.26671 114.589 1.80003C97.6557 -0.59996 68.4557 -0.59996 55.2557 1.80003Z" fill="black"/>
<path d="M96.7224 46.6001C85.9224 48.2001 75.5224 53.5334 72.1891 59.0001C68.0557 65.6667 68.4557 75.1334 73.2557 82.6001C81.7891 96.2001 106.456 110.6 132.322 117.133C144.856 120.333 165.922 122.2 167.256 120.067C168.589 117.933 166.722 117.267 155.256 115.667C123.922 111.4 82.9891 89.2667 78.5891 74.3334C76.3224 67.0001 78.5891 62.8667 87.2557 58.6001C92.8557 55.8001 96.1891 55.2667 111.256 54.7334C130.056 54.0667 141.389 55.6667 165.389 61.9334C195.256 69.8001 230.589 85.2667 253.922 100.733C269.789 111.133 288.456 129.4 293.922 139.667C301.122 153.133 298.456 166.2 286.456 176.467C262.322 197.133 212.856 202.6 153.256 191C123.122 185.133 113.389 181.667 58.9891 157.133C52.0557 154.067 46.1891 151.933 45.7891 152.333C43.7891 154.2 47.6557 157.667 60.1891 165C86.1891 180.467 120.722 193 153.922 199C204.989 208.467 246.722 206.067 275.389 191.933C288.189 185.533 296.189 179 301.122 170.733C304.189 165.4 304.722 163 304.722 154.467C304.722 146.067 304.056 143.133 300.722 136.467C295.256 125.533 275.122 105.533 258.856 94.7334C209.522 62.2001 136.056 40.3334 96.7224 46.6001Z" fill="black"/>
</svg>
