<svg width="138" height="123" viewBox="0 0 138 123" fill="none" xmlns="http://www.w3.org/2000/svg">
<path d="M51.1405 118.077C32.6876 94.9402 -19.7884 42.5174 13.0961 9.63296C32.0515 -9.32239 51.3971 13.7966 61.0961 29.1885C65.5056 36.186 69.0616 43.342 72.7405 50.6996C74.0033 53.225 75.4778 60.6917 76.7406 58.1663C78.6656 54.3163 77.7329 46.7015 79.1405 42.1663C81.0875 35.8926 84.0787 30.3384 88.2961 25.2774C95.8836 16.1723 114.037 -0.0250287 127.14 10.1663C144.028 23.3009 130.611 60.7955 122.163 75.8552C115.01 88.6065 105.579 102.039 95.2293 112.389C93.9984 113.619 85.6683 123.614 88.8294 116.389C91.4259 110.454 94.3404 103.241 94.3404 96.6552C94.3404 90.2153 88.6824 108.229 85.6294 113.9C79.5998 125.098 97.2011 118.077 103.941 118.077" stroke="#1C1C1C" stroke-width="5" stroke-linecap="round"/>
</svg>
