<svg width="106" height="208" viewBox="0 0 106 208" fill="none" xmlns="http://www.w3.org/2000/svg">
<path d="M96.4405 2.50015C83.4641 12.2689 62.112 29.4893 68.7478 49.3973C71.9731 59.0731 73.1923 66.9992 83.0716 71.6787C103.159 81.1934 111.233 46.3069 93.3635 36.9833C57.5657 18.3059 19.4431 42.5798 20.047 81.2279C20.3263 99.1037 29.4665 116.162 44.8749 125.579C52.1138 130.002 64.3718 132.772 67.7929 121.653C75.4064 96.9084 44.4208 80.0505 23.7605 91.4137C-9.50068 109.707 0.346899 157.746 25.352 178.205C25.4989 178.325 44.6626 192.731 44.6626 188.603C44.6626 180.449 28.5838 160.342 31.6121 167.913C34.6119 175.413 41.8007 178.639 46.7847 183.935C49.1013 186.396 24.3857 201.689 20.047 204.943" stroke="#1C1C1C" stroke-width="5" stroke-linecap="round"/>
</svg>
