<svg width="112" height="147" viewBox="0 0 112 147" fill="none" xmlns="http://www.w3.org/2000/svg">
<path d="M25.5736 5.7736L23.9736 11.7736H16.5069C6.77359 11.7736 2.90692 12.9736 3.44025 15.6403C3.70692 16.9736 7.04025 18.7069 12.9069 20.3069L21.8403 22.9736V35.2403C21.8403 55.1069 27.3069 54.8403 32.3736 34.8403L34.6403 25.7736L42.6403 25.5069C54.3736 24.9736 59.1736 23.9069 59.1736 21.7736C59.1736 19.2403 55.9736 17.6403 46.5069 15.7736C34.2403 13.3736 34.2403 13.3736 33.1736 8.04027C31.3069 -1.69307 27.8403 -2.75973 25.5736 5.7736Z" fill="black"/>
<path d="M78.6403 41.3738C78.107 44.5738 77.707 50.7071 77.4403 55.1071L77.1737 62.9738L68.507 67.9071C63.707 70.5738 59.8403 73.6405 59.8403 74.5738C59.8403 76.5738 60.107 76.5738 71.8403 75.2405L79.8403 74.4405L82.507 80.0405C84.3737 83.9071 86.107 85.7738 87.8403 85.7738C90.107 85.7738 90.507 84.7071 90.907 77.3738L91.307 69.1071L98.2403 65.6405C105.174 62.1738 111.174 57.5071 111.174 55.6405C111.174 53.2405 105.307 53.1071 97.8403 55.2405C93.4403 56.4405 89.307 57.1071 88.907 56.5738C88.3737 56.0405 86.7737 51.3738 85.1737 46.1738C81.9737 34.8405 79.707 33.2405 78.6403 41.3738Z" fill="black"/>
<path d="M20.907 80.0401C20.3736 80.9735 18.3736 87.7735 16.507 95.1068L13.1736 108.44L7.44031 109.24C-0.693026 110.307 -2.29303 112.44 3.30697 114.973C5.84031 116.04 8.77364 117.24 9.97364 117.507C11.707 118.04 12.3736 120.84 13.0403 130.173C13.5736 137.24 14.7736 143.24 15.9736 144.707C17.8403 146.973 17.8403 146.973 19.707 144.573C20.7736 143.24 22.107 138.707 22.507 134.573C24.3736 117.507 23.9736 117.907 34.7736 116.44C50.907 114.173 51.4403 109.507 35.8403 107.64C31.0403 106.973 26.507 106.173 25.8403 105.773C25.0403 105.24 24.507 99.3735 24.507 92.4401C24.507 80.5735 23.307 76.4401 20.907 80.0401Z" fill="black"/>
</svg>
